<mxfile host="app.diagrams.net" agent="Mozilla/5.0 (Windows NT 10.0; Win64; x64) AppleWebKit/537.36 (KHTML, like Gecko) Chrome/122.0.0.0 Safari/537.36" version="26.0.5">
  <diagram name="Page-1" id="js-JORSwDeCTtrG_aufr">
    <mxGraphModel dx="2537" dy="2109" grid="1" gridSize="10" guides="1" tooltips="1" connect="1" arrows="1" fold="1" page="1" pageScale="1" pageWidth="850" pageHeight="1100" math="0" shadow="0">
      <root>
        <mxCell id="0" />
        <mxCell id="1" parent="0" />
        <mxCell id="SvQYntT_slhw4JaxMj-Q-138" value="" style="rounded=1;whiteSpace=wrap;html=1;absoluteArcSize=1;arcSize=14;strokeWidth=2;fillColor=none;dashed=1;fontStyle=1" parent="1" vertex="1">
          <mxGeometry x="490" y="-210" width="520" height="570" as="geometry" />
        </mxCell>
        <mxCell id="SvQYntT_slhw4JaxMj-Q-137" value="" style="rounded=1;whiteSpace=wrap;html=1;absoluteArcSize=1;arcSize=14;strokeWidth=2;fillColor=none;dashed=1;fontStyle=1" parent="1" vertex="1">
          <mxGeometry x="-540" y="-210" width="1030" height="591.25" as="geometry" />
        </mxCell>
        <mxCell id="SvQYntT_slhw4JaxMj-Q-130" value="" style="shape=internalStorage;whiteSpace=wrap;html=1;backgroundOutline=1;fontSize=16;fontStyle=1" parent="1" vertex="1">
          <mxGeometry x="-500" y="-200" width="140" height="335" as="geometry" />
        </mxCell>
        <mxCell id="SvQYntT_slhw4JaxMj-Q-131" value="&lt;font style=&quot;&quot; size=&quot;1&quot;&gt;&lt;span style=&quot;&quot;&gt;&lt;span style=&quot;font-size: 16px;&quot;&gt;Legend&lt;/span&gt;&lt;/span&gt;&lt;/font&gt;" style="text;html=1;align=center;verticalAlign=middle;resizable=0;points=[];autosize=1;strokeColor=none;fillColor=none;fontStyle=1" parent="1" vertex="1">
          <mxGeometry x="-480" y="-205" width="80" height="30" as="geometry" />
        </mxCell>
        <mxCell id="SvQYntT_slhw4JaxMj-Q-129" value="" style="shape=internalStorage;whiteSpace=wrap;html=1;backgroundOutline=1;fontSize=16;fontStyle=1" parent="1" vertex="1">
          <mxGeometry x="520" y="-122.5" width="130" height="220" as="geometry" />
        </mxCell>
        <mxCell id="SvQYntT_slhw4JaxMj-Q-13" style="edgeStyle=orthogonalEdgeStyle;rounded=0;orthogonalLoop=1;jettySize=auto;html=1;exitX=0;exitY=0.25;exitDx=0;exitDy=0;entryX=0.5;entryY=0;entryDx=0;entryDy=0;fontSize=16;fontStyle=1;" parent="1" source="SvQYntT_slhw4JaxMj-Q-2" target="SvQYntT_slhw4JaxMj-Q-11" edge="1">
          <mxGeometry relative="1" as="geometry">
            <Array as="points">
              <mxPoint x="-160" y="-69" />
            </Array>
            <mxPoint x="-7.824999999999818" y="-37.49999999999984" as="sourcePoint" />
            <mxPoint x="-275" y="27.68" as="targetPoint" />
          </mxGeometry>
        </mxCell>
        <mxCell id="SvQYntT_slhw4JaxMj-Q-14" value="&quot;velocity&quot;" style="edgeLabel;html=1;align=center;verticalAlign=middle;resizable=0;points=[];fontSize=16;fontStyle=1" parent="SvQYntT_slhw4JaxMj-Q-13" vertex="1" connectable="0">
          <mxGeometry x="-0.0152" y="-2" relative="1" as="geometry">
            <mxPoint x="-13" y="1" as="offset" />
          </mxGeometry>
        </mxCell>
        <mxCell id="nDC3GwIiWiEVVQhMs_7W-9" style="edgeStyle=orthogonalEdgeStyle;rounded=0;orthogonalLoop=1;jettySize=auto;html=1;entryX=0;entryY=0.75;entryDx=0;entryDy=0;" parent="1" target="nDC3GwIiWiEVVQhMs_7W-8" edge="1">
          <mxGeometry relative="1" as="geometry">
            <mxPoint x="150" y="-35" as="sourcePoint" />
            <Array as="points">
              <mxPoint x="150" y="-35" />
              <mxPoint x="150" y="114" />
            </Array>
          </mxGeometry>
        </mxCell>
        <mxCell id="nDC3GwIiWiEVVQhMs_7W-10" value="&quot;goal&quot;" style="edgeLabel;html=1;align=center;verticalAlign=middle;resizable=0;points=[];fontSize=16;fontStyle=1" parent="nDC3GwIiWiEVVQhMs_7W-9" vertex="1" connectable="0">
          <mxGeometry x="0.3984" y="-1" relative="1" as="geometry">
            <mxPoint as="offset" />
          </mxGeometry>
        </mxCell>
        <mxCell id="0YpsHcEJag4zuLVZvNyq-8" style="edgeStyle=orthogonalEdgeStyle;rounded=0;orthogonalLoop=1;jettySize=auto;html=1;exitX=0;exitY=0.75;exitDx=0;exitDy=0;entryX=0.5;entryY=0;entryDx=0;entryDy=0;" parent="1" source="SvQYntT_slhw4JaxMj-Q-2" target="0YpsHcEJag4zuLVZvNyq-3" edge="1">
          <mxGeometry relative="1" as="geometry">
            <mxPoint x="-175" y="27.68" as="targetPoint" />
            <Array as="points">
              <mxPoint x="-45" y="-46" />
            </Array>
            <mxPoint x="10.625" y="-37.32" as="sourcePoint" />
          </mxGeometry>
        </mxCell>
        <mxCell id="0YpsHcEJag4zuLVZvNyq-9" value="&quot;pose&quot;" style="edgeLabel;html=1;align=center;verticalAlign=middle;resizable=0;points=[];fontSize=16;fontStyle=1" parent="0YpsHcEJag4zuLVZvNyq-8" vertex="1" connectable="0">
          <mxGeometry x="0.0208" relative="1" as="geometry">
            <mxPoint x="16" as="offset" />
          </mxGeometry>
        </mxCell>
        <mxCell id="ujazCNuhz-sULvrIAdQW-38" style="edgeStyle=orthogonalEdgeStyle;rounded=0;orthogonalLoop=1;jettySize=auto;html=1;exitX=0.378;exitY=1.027;exitDx=0;exitDy=0;entryX=0;entryY=0.75;entryDx=0;entryDy=0;exitPerimeter=0;" edge="1" parent="1" source="SvQYntT_slhw4JaxMj-Q-2" target="ujazCNuhz-sULvrIAdQW-37">
          <mxGeometry relative="1" as="geometry">
            <Array as="points">
              <mxPoint x="120" y="101" />
            </Array>
          </mxGeometry>
        </mxCell>
        <mxCell id="ujazCNuhz-sULvrIAdQW-41" value="&quot;cmd&quot;" style="edgeLabel;html=1;align=center;verticalAlign=middle;resizable=0;points=[];fontSize=16;fontStyle=1" vertex="1" connectable="0" parent="ujazCNuhz-sULvrIAdQW-38">
          <mxGeometry x="0.4764" relative="1" as="geometry">
            <mxPoint x="15" as="offset" />
          </mxGeometry>
        </mxCell>
        <mxCell id="SvQYntT_slhw4JaxMj-Q-2" value="decisions.py" style="rounded=1;whiteSpace=wrap;html=1;fillColor=#d5e8d4;strokeColor=#82b366;fontSize=16;fontStyle=1" parent="1" vertex="1">
          <mxGeometry x="77.5" y="-80" width="112.5" height="45" as="geometry" />
        </mxCell>
        <mxCell id="SvQYntT_slhw4JaxMj-Q-10" style="edgeStyle=orthogonalEdgeStyle;rounded=0;orthogonalLoop=1;jettySize=auto;html=1;exitX=1;exitY=0.5;exitDx=0;exitDy=0;entryX=0.25;entryY=0;entryDx=0;entryDy=0;fontSize=16;fontStyle=1" parent="1" source="SvQYntT_slhw4JaxMj-Q-5" target="SvQYntT_slhw4JaxMj-Q-2" edge="1">
          <mxGeometry relative="1" as="geometry" />
        </mxCell>
        <mxCell id="SvQYntT_slhw4JaxMj-Q-5" value="/cmd" style="swimlane;whiteSpace=wrap;html=1;fillColor=#dae8fc;strokeColor=#6c8ebf;fontSize=16;fontStyle=1" parent="1" vertex="1">
          <mxGeometry x="-32.5" y="-140" width="80" height="50" as="geometry" />
        </mxCell>
        <mxCell id="SvQYntT_slhw4JaxMj-Q-6" value="Process" style="strokeWidth=2;html=1;shape=mxgraph.flowchart.start_1;whiteSpace=wrap;fillColor=#e1d5e7;strokeColor=#9673a6;fontSize=16;fontStyle=1" parent="1" vertex="1">
          <mxGeometry x="-465" y="-167.5" width="80" height="50" as="geometry" />
        </mxCell>
        <mxCell id="SvQYntT_slhw4JaxMj-Q-61" style="edgeStyle=orthogonalEdgeStyle;rounded=0;orthogonalLoop=1;jettySize=auto;html=1;exitX=1;exitY=0.5;exitDx=0;exitDy=0;exitPerimeter=0;entryX=0;entryY=0.5;entryDx=0;entryDy=0;fontSize=16;fontStyle=1" parent="1" source="SvQYntT_slhw4JaxMj-Q-7" target="SvQYntT_slhw4JaxMj-Q-5" edge="1">
          <mxGeometry relative="1" as="geometry" />
        </mxCell>
        <mxCell id="SvQYntT_slhw4JaxMj-Q-62" value="&quot;cmd&quot;" style="edgeLabel;html=1;align=center;verticalAlign=middle;resizable=0;points=[];fontSize=16;fontStyle=1" parent="SvQYntT_slhw4JaxMj-Q-61" vertex="1" connectable="0">
          <mxGeometry x="-0.1474" relative="1" as="geometry">
            <mxPoint as="offset" />
          </mxGeometry>
        </mxCell>
        <mxCell id="SvQYntT_slhw4JaxMj-Q-7" value="Start" style="strokeWidth=2;html=1;shape=mxgraph.flowchart.start_1;whiteSpace=wrap;fillColor=#e1d5e7;strokeColor=#9673a6;fontSize=16;fontStyle=1" parent="1" vertex="1">
          <mxGeometry x="-200" y="-140" width="80" height="50" as="geometry" />
        </mxCell>
        <mxCell id="0YpsHcEJag4zuLVZvNyq-4" style="edgeStyle=orthogonalEdgeStyle;rounded=0;orthogonalLoop=1;jettySize=auto;html=1;exitX=0.5;exitY=1;exitDx=0;exitDy=0;entryX=0.25;entryY=0;entryDx=0;entryDy=0;" parent="1" source="SvQYntT_slhw4JaxMj-Q-11" target="0YpsHcEJag4zuLVZvNyq-2" edge="1">
          <mxGeometry relative="1" as="geometry">
            <Array as="points">
              <mxPoint x="-160" y="87.68" />
              <mxPoint x="-132" y="87.68" />
            </Array>
          </mxGeometry>
        </mxCell>
        <mxCell id="SvQYntT_slhw4JaxMj-Q-11" value="/cmd_vel" style="swimlane;whiteSpace=wrap;html=1;fillColor=#dae8fc;strokeColor=#6c8ebf;fontSize=16;fontStyle=1" parent="1" vertex="1">
          <mxGeometry x="-200" y="27.68" width="80" height="50" as="geometry" />
        </mxCell>
        <mxCell id="SvQYntT_slhw4JaxMj-Q-16" value="Node" style="rounded=1;whiteSpace=wrap;html=1;fillColor=#d5e8d4;strokeColor=#82b366;fontSize=16;fontStyle=1" parent="1" vertex="1">
          <mxGeometry x="-465" y="-107.5" width="80" height="40" as="geometry" />
        </mxCell>
        <mxCell id="SvQYntT_slhw4JaxMj-Q-17" value="/topic" style="swimlane;whiteSpace=wrap;html=1;fillColor=#dae8fc;strokeColor=#6c8ebf;fontSize=16;fontStyle=1" parent="1" vertex="1">
          <mxGeometry x="-465" y="-55" width="80" height="50" as="geometry" />
        </mxCell>
        <mxCell id="ujazCNuhz-sULvrIAdQW-45" style="edgeStyle=orthogonalEdgeStyle;rounded=0;orthogonalLoop=1;jettySize=auto;html=1;exitX=0;exitY=0.5;exitDx=0;exitDy=0;entryX=1;entryY=0.5;entryDx=0;entryDy=0;" edge="1" parent="1" source="SvQYntT_slhw4JaxMj-Q-27" target="SvQYntT_slhw4JaxMj-Q-2">
          <mxGeometry relative="1" as="geometry" />
        </mxCell>
        <mxCell id="ujazCNuhz-sULvrIAdQW-46" value="&quot;keypoints&quot;" style="edgeLabel;html=1;align=center;verticalAlign=middle;resizable=0;points=[];fontSize=16;fontStyle=1" vertex="1" connectable="0" parent="ujazCNuhz-sULvrIAdQW-45">
          <mxGeometry x="0.0607" y="-2" relative="1" as="geometry">
            <mxPoint x="7" y="2" as="offset" />
          </mxGeometry>
        </mxCell>
        <mxCell id="SvQYntT_slhw4JaxMj-Q-27" value="yolo_model.py" style="rounded=1;whiteSpace=wrap;html=1;fillColor=#fff2cc;strokeColor=#d6b656;fontSize=16;fontStyle=1" parent="1" vertex="1">
          <mxGeometry x="300" y="-73.75" width="125" height="32.5" as="geometry" />
        </mxCell>
        <mxCell id="SvQYntT_slhw4JaxMj-Q-69" value="Hardware" style="rhombus;whiteSpace=wrap;html=1;fillColor=#f8cecc;strokeColor=#b85450;fontSize=16;fontStyle=1" parent="1" vertex="1">
          <mxGeometry x="-470" y="5" width="90" height="60" as="geometry" />
        </mxCell>
        <mxCell id="SvQYntT_slhw4JaxMj-Q-70" value="Motors" style="rhombus;whiteSpace=wrap;html=1;fillColor=#f8cecc;strokeColor=#b85450;fontSize=16;fontStyle=1" parent="1" vertex="1">
          <mxGeometry x="-148.75" y="280" width="90" height="60" as="geometry" />
        </mxCell>
        <mxCell id="ujazCNuhz-sULvrIAdQW-32" style="edgeStyle=orthogonalEdgeStyle;rounded=0;orthogonalLoop=1;jettySize=auto;html=1;entryX=1;entryY=0.5;entryDx=0;entryDy=0;exitX=0;exitY=0.5;exitDx=0;exitDy=0;" edge="1" parent="1" source="ujazCNuhz-sULvrIAdQW-34" target="nDC3GwIiWiEVVQhMs_7W-18">
          <mxGeometry relative="1" as="geometry">
            <mxPoint x="360" y="235" as="sourcePoint" />
          </mxGeometry>
        </mxCell>
        <mxCell id="ujazCNuhz-sULvrIAdQW-33" value="&quot;ticks&quot;" style="edgeLabel;html=1;align=center;verticalAlign=middle;resizable=0;points=[];fontSize=16;fontStyle=1" vertex="1" connectable="0" parent="ujazCNuhz-sULvrIAdQW-32">
          <mxGeometry x="-0.0618" y="1" relative="1" as="geometry">
            <mxPoint as="offset" />
          </mxGeometry>
        </mxCell>
        <mxCell id="SvQYntT_slhw4JaxMj-Q-96" style="edgeStyle=orthogonalEdgeStyle;rounded=0;orthogonalLoop=1;jettySize=auto;html=1;exitX=1;exitY=0.5;exitDx=0;exitDy=0;exitPerimeter=0;entryX=0;entryY=0.5;entryDx=0;entryDy=0;fontSize=16;fontStyle=1" parent="1" source="SvQYntT_slhw4JaxMj-Q-73" target="SvQYntT_slhw4JaxMj-Q-88" edge="1">
          <mxGeometry relative="1" as="geometry" />
        </mxCell>
        <mxCell id="SvQYntT_slhw4JaxMj-Q-121" value="&quot;cmd&quot;" style="edgeLabel;html=1;align=center;verticalAlign=middle;resizable=0;points=[];fontSize=16;fontStyle=1" parent="SvQYntT_slhw4JaxMj-Q-96" vertex="1" connectable="0">
          <mxGeometry x="-0.1492" y="-2" relative="1" as="geometry">
            <mxPoint as="offset" />
          </mxGeometry>
        </mxCell>
        <mxCell id="SvQYntT_slhw4JaxMj-Q-73" value="UART_Rx" style="strokeWidth=2;html=1;shape=mxgraph.flowchart.start_1;whiteSpace=wrap;fillColor=#e1d5e7;strokeColor=#9673a6;fontSize=16;fontStyle=1" parent="1" vertex="1">
          <mxGeometry x="620" y="170" width="90" height="50" as="geometry" />
        </mxCell>
        <mxCell id="SvQYntT_slhw4JaxMj-Q-75" style="edgeStyle=orthogonalEdgeStyle;rounded=0;orthogonalLoop=1;jettySize=auto;html=1;exitX=1;exitY=0.25;exitDx=0;exitDy=0;entryX=0;entryY=0.5;entryDx=0;entryDy=0;entryPerimeter=0;fontSize=16;fontStyle=1" parent="1" source="ujazCNuhz-sULvrIAdQW-37" target="SvQYntT_slhw4JaxMj-Q-73" edge="1">
          <mxGeometry relative="1" as="geometry">
            <mxPoint x="462.5" y="225.00000000000023" as="sourcePoint" />
            <Array as="points">
              <mxPoint x="470" y="84" />
              <mxPoint x="470" y="195" />
            </Array>
          </mxGeometry>
        </mxCell>
        <mxCell id="SvQYntT_slhw4JaxMj-Q-124" value="&quot;cmd&quot;" style="edgeLabel;html=1;align=center;verticalAlign=middle;resizable=0;points=[];fontSize=16;fontStyle=1" parent="SvQYntT_slhw4JaxMj-Q-75" vertex="1" connectable="0">
          <mxGeometry x="0.5854" y="-1" relative="1" as="geometry">
            <mxPoint x="-6" y="-1" as="offset" />
          </mxGeometry>
        </mxCell>
        <mxCell id="SvQYntT_slhw4JaxMj-Q-78" style="edgeStyle=orthogonalEdgeStyle;rounded=0;orthogonalLoop=1;jettySize=auto;html=1;exitX=0;exitY=0.5;exitDx=0;exitDy=0;exitPerimeter=0;entryX=1;entryY=0.75;entryDx=0;entryDy=0;fontSize=16;fontStyle=1" parent="1" source="SvQYntT_slhw4JaxMj-Q-76" target="ujazCNuhz-sULvrIAdQW-37" edge="1">
          <mxGeometry relative="1" as="geometry">
            <mxPoint x="462.5" y="245.00000000000023" as="targetPoint" />
            <Array as="points">
              <mxPoint x="450" y="280" />
              <mxPoint x="450" y="101" />
            </Array>
          </mxGeometry>
        </mxCell>
        <mxCell id="SvQYntT_slhw4JaxMj-Q-123" value="&quot;state&quot;" style="edgeLabel;html=1;align=center;verticalAlign=middle;resizable=0;points=[];fontSize=16;fontStyle=1" parent="SvQYntT_slhw4JaxMj-Q-78" vertex="1" connectable="0">
          <mxGeometry x="-0.6814" y="2" relative="1" as="geometry">
            <mxPoint x="-14" y="-2" as="offset" />
          </mxGeometry>
        </mxCell>
        <mxCell id="ujazCNuhz-sULvrIAdQW-43" style="edgeStyle=orthogonalEdgeStyle;rounded=0;orthogonalLoop=1;jettySize=auto;html=1;exitX=0.145;exitY=0.855;exitDx=0;exitDy=0;exitPerimeter=0;entryX=0.5;entryY=1;entryDx=0;entryDy=0;" edge="1" parent="1" source="SvQYntT_slhw4JaxMj-Q-76" target="ujazCNuhz-sULvrIAdQW-34">
          <mxGeometry relative="1" as="geometry" />
        </mxCell>
        <mxCell id="ujazCNuhz-sULvrIAdQW-44" value="&quot;ticks&quot;" style="edgeLabel;html=1;align=center;verticalAlign=middle;resizable=0;points=[];fontSize=16;fontStyle=1" vertex="1" connectable="0" parent="ujazCNuhz-sULvrIAdQW-43">
          <mxGeometry x="0.3323" relative="1" as="geometry">
            <mxPoint as="offset" />
          </mxGeometry>
        </mxCell>
        <mxCell id="SvQYntT_slhw4JaxMj-Q-76" value="UART_Tx" style="strokeWidth=2;html=1;shape=mxgraph.flowchart.start_1;whiteSpace=wrap;fillColor=#e1d5e7;strokeColor=#9673a6;fontSize=16;fontStyle=1" parent="1" vertex="1">
          <mxGeometry x="620" y="255" width="90" height="50" as="geometry" />
        </mxCell>
        <mxCell id="SvQYntT_slhw4JaxMj-Q-79" style="edgeStyle=orthogonalEdgeStyle;rounded=0;orthogonalLoop=1;jettySize=auto;html=1;exitX=0.5;exitY=1;exitDx=0;exitDy=0;exitPerimeter=0;entryX=0.5;entryY=0;entryDx=0;entryDy=0;entryPerimeter=0;fontSize=16;fontStyle=1" parent="1" source="SvQYntT_slhw4JaxMj-Q-73" target="SvQYntT_slhw4JaxMj-Q-76" edge="1">
          <mxGeometry relative="1" as="geometry" />
        </mxCell>
        <mxCell id="SvQYntT_slhw4JaxMj-Q-80" value="&quot;ack&quot;" style="edgeLabel;html=1;align=center;verticalAlign=middle;resizable=0;points=[];fontSize=16;fontStyle=1" parent="SvQYntT_slhw4JaxMj-Q-79" vertex="1" connectable="0">
          <mxGeometry x="-0.2857" relative="1" as="geometry">
            <mxPoint as="offset" />
          </mxGeometry>
        </mxCell>
        <mxCell id="SvQYntT_slhw4JaxMj-Q-81" value="Module" style="rounded=1;whiteSpace=wrap;html=1;fillColor=#d5e8d4;strokeColor=#82b366;fontSize=16;fontStyle=1" parent="1" vertex="1">
          <mxGeometry x="555" y="-90" width="80" height="40" as="geometry" />
        </mxCell>
        <mxCell id="-YYrbfhrtaR76CVI8aIQ-5" style="edgeStyle=orthogonalEdgeStyle;rounded=0;orthogonalLoop=1;jettySize=auto;html=1;exitX=0.5;exitY=0;exitDx=0;exitDy=0;exitPerimeter=0;entryX=0.5;entryY=1;entryDx=0;entryDy=0;fontStyle=1" parent="1" source="SvQYntT_slhw4JaxMj-Q-82" target="SvQYntT_slhw4JaxMj-Q-97" edge="1">
          <mxGeometry relative="1" as="geometry" />
        </mxCell>
        <mxCell id="SvQYntT_slhw4JaxMj-Q-82" value="Move" style="strokeWidth=2;html=1;shape=mxgraph.flowchart.start_1;whiteSpace=wrap;fillColor=#e1d5e7;strokeColor=#9673a6;fontSize=16;fontStyle=1" parent="1" vertex="1">
          <mxGeometry x="790" y="-60" width="80" height="50" as="geometry" />
        </mxCell>
        <mxCell id="-YYrbfhrtaR76CVI8aIQ-17" style="edgeStyle=orthogonalEdgeStyle;rounded=0;orthogonalLoop=1;jettySize=auto;html=1;exitX=0.5;exitY=0;exitDx=0;exitDy=0;entryX=0.5;entryY=1;entryDx=0;entryDy=0;fontStyle=1" parent="1" source="SvQYntT_slhw4JaxMj-Q-88" target="SvQYntT_slhw4JaxMj-Q-90" edge="1">
          <mxGeometry relative="1" as="geometry" />
        </mxCell>
        <mxCell id="-YYrbfhrtaR76CVI8aIQ-19" style="edgeStyle=orthogonalEdgeStyle;rounded=0;orthogonalLoop=1;jettySize=auto;html=1;exitX=0.75;exitY=0;exitDx=0;exitDy=0;entryX=0.5;entryY=1;entryDx=0;entryDy=0;fontStyle=1" parent="1" source="SvQYntT_slhw4JaxMj-Q-88" target="SvQYntT_slhw4JaxMj-Q-107" edge="1">
          <mxGeometry relative="1" as="geometry" />
        </mxCell>
        <mxCell id="SvQYntT_slhw4JaxMj-Q-88" value="State Machine" style="rounded=1;whiteSpace=wrap;html=1;fillColor=#d5e8d4;strokeColor=#82b366;fontSize=16;fontStyle=1" parent="1" vertex="1">
          <mxGeometry x="790" y="175" width="80" height="40" as="geometry" />
        </mxCell>
        <mxCell id="-YYrbfhrtaR76CVI8aIQ-18" style="edgeStyle=orthogonalEdgeStyle;rounded=0;orthogonalLoop=1;jettySize=auto;html=1;exitX=0.5;exitY=1;exitDx=0;exitDy=0;entryX=0.5;entryY=0;entryDx=0;entryDy=0;fontStyle=1" parent="1" source="SvQYntT_slhw4JaxMj-Q-90" target="SvQYntT_slhw4JaxMj-Q-88" edge="1">
          <mxGeometry relative="1" as="geometry" />
        </mxCell>
        <mxCell id="-YYrbfhrtaR76CVI8aIQ-21" value="&quot;state/cmd&quot;" style="edgeLabel;html=1;align=center;verticalAlign=middle;resizable=0;points=[];fontSize=16;fontStyle=1" parent="-YYrbfhrtaR76CVI8aIQ-18" vertex="1" connectable="0">
          <mxGeometry x="-0.3811" y="-1" relative="1" as="geometry">
            <mxPoint x="1" y="-3" as="offset" />
          </mxGeometry>
        </mxCell>
        <mxCell id="SvQYntT_slhw4JaxMj-Q-90" value="Motor_HAL" style="rounded=1;whiteSpace=wrap;html=1;fillColor=#d5e8d4;strokeColor=#82b366;fontSize=16;fontStyle=1" parent="1" vertex="1">
          <mxGeometry x="780" y="20" width="100" height="40" as="geometry" />
        </mxCell>
        <mxCell id="SvQYntT_slhw4JaxMj-Q-97" value="Motors" style="rhombus;whiteSpace=wrap;html=1;fillColor=#f8cecc;strokeColor=#b85450;fontSize=16;fontStyle=1" parent="1" vertex="1">
          <mxGeometry x="785" y="-160" width="90" height="60" as="geometry" />
        </mxCell>
        <mxCell id="SvQYntT_slhw4JaxMj-Q-108" style="edgeStyle=orthogonalEdgeStyle;rounded=0;orthogonalLoop=1;jettySize=auto;html=1;exitX=0.5;exitY=1;exitDx=0;exitDy=0;entryX=0.25;entryY=0;entryDx=0;entryDy=0;fontSize=16;fontStyle=1" parent="1" source="SvQYntT_slhw4JaxMj-Q-99" target="SvQYntT_slhw4JaxMj-Q-88" edge="1">
          <mxGeometry relative="1" as="geometry">
            <Array as="points">
              <mxPoint x="720" y="130" />
              <mxPoint x="810" y="130" />
            </Array>
          </mxGeometry>
        </mxCell>
        <mxCell id="SvQYntT_slhw4JaxMj-Q-109" value="&quot;state&quot;" style="edgeLabel;html=1;align=center;verticalAlign=middle;resizable=0;points=[];fontSize=16;fontStyle=1" parent="SvQYntT_slhw4JaxMj-Q-108" vertex="1" connectable="0">
          <mxGeometry x="-0.3823" y="1" relative="1" as="geometry">
            <mxPoint x="-1" y="-31" as="offset" />
          </mxGeometry>
        </mxCell>
        <mxCell id="SvQYntT_slhw4JaxMj-Q-99" value="Limit_HAL" style="rounded=1;whiteSpace=wrap;html=1;fillColor=#d5e8d4;strokeColor=#82b366;fontSize=16;fontStyle=1" parent="1" vertex="1">
          <mxGeometry x="675" y="20" width="90" height="40" as="geometry" />
        </mxCell>
        <mxCell id="SvQYntT_slhw4JaxMj-Q-106" style="edgeStyle=orthogonalEdgeStyle;rounded=0;orthogonalLoop=1;jettySize=auto;html=1;exitX=0.5;exitY=1;exitDx=0;exitDy=0;entryX=0.5;entryY=0;entryDx=0;entryDy=0;fontSize=16;fontStyle=1" parent="1" source="SvQYntT_slhw4JaxMj-Q-103" target="SvQYntT_slhw4JaxMj-Q-99" edge="1">
          <mxGeometry relative="1" as="geometry" />
        </mxCell>
        <mxCell id="SvQYntT_slhw4JaxMj-Q-103" value="Switches" style="rhombus;whiteSpace=wrap;html=1;fillColor=#f8cecc;strokeColor=#b85450;fontSize=16;fontStyle=1" parent="1" vertex="1">
          <mxGeometry x="675" y="-100" width="90" height="60" as="geometry" />
        </mxCell>
        <mxCell id="SvQYntT_slhw4JaxMj-Q-104" value="Hardware" style="rhombus;whiteSpace=wrap;html=1;fillColor=#f8cecc;strokeColor=#b85450;fontSize=16;fontStyle=1" parent="1" vertex="1">
          <mxGeometry x="550" y="22.5" width="90" height="60" as="geometry" />
        </mxCell>
        <mxCell id="-YYrbfhrtaR76CVI8aIQ-7" style="edgeStyle=orthogonalEdgeStyle;rounded=0;orthogonalLoop=1;jettySize=auto;html=1;exitX=0.5;exitY=0;exitDx=0;exitDy=0;entryX=0.5;entryY=1;entryDx=0;entryDy=0;fontStyle=1" parent="1" source="SvQYntT_slhw4JaxMj-Q-107" target="SvQYntT_slhw4JaxMj-Q-114" edge="1">
          <mxGeometry relative="1" as="geometry" />
        </mxCell>
        <mxCell id="-YYrbfhrtaR76CVI8aIQ-20" style="edgeStyle=orthogonalEdgeStyle;rounded=0;orthogonalLoop=1;jettySize=auto;html=1;exitX=0.5;exitY=1;exitDx=0;exitDy=0;entryX=0.75;entryY=0;entryDx=0;entryDy=0;fontStyle=1" parent="1" source="SvQYntT_slhw4JaxMj-Q-107" target="SvQYntT_slhw4JaxMj-Q-88" edge="1">
          <mxGeometry relative="1" as="geometry" />
        </mxCell>
        <mxCell id="-YYrbfhrtaR76CVI8aIQ-22" value="&quot;state/cmd&quot;" style="edgeLabel;html=1;align=center;verticalAlign=middle;resizable=0;points=[];fontSize=16;fontStyle=1" parent="-YYrbfhrtaR76CVI8aIQ-20" vertex="1" connectable="0">
          <mxGeometry x="-0.6797" y="-1" relative="1" as="geometry">
            <mxPoint x="1" y="1" as="offset" />
          </mxGeometry>
        </mxCell>
        <mxCell id="SvQYntT_slhw4JaxMj-Q-107" value="HMI_HAL" style="rounded=1;whiteSpace=wrap;html=1;fillColor=#d5e8d4;strokeColor=#82b366;fontSize=16;fontStyle=1" parent="1" vertex="1">
          <mxGeometry x="895" y="20" width="80" height="40" as="geometry" />
        </mxCell>
        <mxCell id="-YYrbfhrtaR76CVI8aIQ-6" style="edgeStyle=orthogonalEdgeStyle;rounded=0;orthogonalLoop=1;jettySize=auto;html=1;exitX=0.5;exitY=1;exitDx=0;exitDy=0;entryX=0.5;entryY=0;entryDx=0;entryDy=0;fontStyle=1" parent="1" source="SvQYntT_slhw4JaxMj-Q-114" target="SvQYntT_slhw4JaxMj-Q-107" edge="1">
          <mxGeometry relative="1" as="geometry" />
        </mxCell>
        <mxCell id="SvQYntT_slhw4JaxMj-Q-114" value="HMI" style="rhombus;whiteSpace=wrap;html=1;fillColor=#f8cecc;strokeColor=#b85450;fontSize=16;fontStyle=1" parent="1" vertex="1">
          <mxGeometry x="890" y="-100" width="90" height="60" as="geometry" />
        </mxCell>
        <mxCell id="SvQYntT_slhw4JaxMj-Q-117" value="Process" style="strokeWidth=2;html=1;shape=mxgraph.flowchart.start_1;whiteSpace=wrap;fillColor=#e1d5e7;strokeColor=#9673a6;fontSize=16;fontStyle=1" parent="1" vertex="1">
          <mxGeometry x="555" y="-37.5" width="80" height="50" as="geometry" />
        </mxCell>
        <mxCell id="SvQYntT_slhw4JaxMj-Q-120" style="edgeStyle=orthogonalEdgeStyle;rounded=0;orthogonalLoop=1;jettySize=auto;html=1;exitX=0.25;exitY=1;exitDx=0;exitDy=0;entryX=1;entryY=0.5;entryDx=0;entryDy=0;entryPerimeter=0;fontSize=16;fontStyle=1" parent="1" source="SvQYntT_slhw4JaxMj-Q-88" target="SvQYntT_slhw4JaxMj-Q-76" edge="1">
          <mxGeometry relative="1" as="geometry" />
        </mxCell>
        <mxCell id="SvQYntT_slhw4JaxMj-Q-122" value="&quot;state&quot;" style="edgeLabel;html=1;align=center;verticalAlign=middle;resizable=0;points=[];fontSize=16;fontStyle=1" parent="SvQYntT_slhw4JaxMj-Q-120" vertex="1" connectable="0">
          <mxGeometry x="0.3994" y="-1" relative="1" as="geometry">
            <mxPoint as="offset" />
          </mxGeometry>
        </mxCell>
        <mxCell id="SvQYntT_slhw4JaxMj-Q-127" value="&lt;font style=&quot;&quot; size=&quot;1&quot;&gt;&lt;span style=&quot;&quot;&gt;&lt;span style=&quot;font-size: 16px;&quot;&gt;Legend&lt;/span&gt;&lt;/span&gt;&lt;/font&gt;" style="text;html=1;align=center;verticalAlign=middle;resizable=0;points=[];autosize=1;strokeColor=none;fillColor=none;fontStyle=1" parent="1" vertex="1">
          <mxGeometry x="540" y="-130" width="80" height="30" as="geometry" />
        </mxCell>
        <mxCell id="SvQYntT_slhw4JaxMj-Q-133" value="&lt;span&gt;&lt;u&gt;&lt;font style=&quot;font-size: 32px;&quot;&gt;RaspberryPi&lt;/font&gt;&lt;/u&gt;&lt;/span&gt;" style="text;html=1;strokeColor=none;fillColor=none;align=center;verticalAlign=middle;whiteSpace=wrap;rounded=0;fontStyle=1" parent="1" vertex="1">
          <mxGeometry x="-240" y="-201.25" width="220" height="50" as="geometry" />
        </mxCell>
        <mxCell id="SvQYntT_slhw4JaxMj-Q-139" value="&lt;span&gt;&lt;u&gt;&lt;font style=&quot;font-size: 32px;&quot;&gt;Nucleo&lt;/font&gt;&lt;/u&gt;&lt;/span&gt;" style="text;html=1;strokeColor=none;fillColor=none;align=center;verticalAlign=middle;whiteSpace=wrap;rounded=0;fontStyle=1" parent="1" vertex="1">
          <mxGeometry x="500" y="-200" width="140" height="50" as="geometry" />
        </mxCell>
        <mxCell id="-YYrbfhrtaR76CVI8aIQ-1" value="&lt;u style=&quot;font-size: 16px;&quot;&gt;UART&lt;/u&gt;" style="text;html=1;align=center;verticalAlign=middle;whiteSpace=wrap;rounded=0;fontSize=16;fontStyle=1" parent="1" vertex="1">
          <mxGeometry x="530" y="225" width="90" height="30" as="geometry" />
        </mxCell>
        <mxCell id="-YYrbfhrtaR76CVI8aIQ-8" style="edgeStyle=orthogonalEdgeStyle;rounded=0;orthogonalLoop=1;jettySize=auto;html=1;exitX=0.5;exitY=0;exitDx=0;exitDy=0;entryX=0.5;entryY=1;entryDx=0;entryDy=0;entryPerimeter=0;fontStyle=1" parent="1" source="SvQYntT_slhw4JaxMj-Q-90" target="SvQYntT_slhw4JaxMj-Q-82" edge="1">
          <mxGeometry relative="1" as="geometry" />
        </mxCell>
        <mxCell id="nDC3GwIiWiEVVQhMs_7W-8" value="planner.py" style="rounded=1;whiteSpace=wrap;html=1;fillColor=#fff2cc;strokeColor=#d6b656;fontSize=16;fontStyle=1" parent="1" vertex="1">
          <mxGeometry x="306.25" width="112.5" height="45" as="geometry" />
        </mxCell>
        <mxCell id="nDC3GwIiWiEVVQhMs_7W-11" style="edgeStyle=orthogonalEdgeStyle;rounded=0;orthogonalLoop=1;jettySize=auto;html=1;exitX=0;exitY=0.25;exitDx=0;exitDy=0;entryX=0.709;entryY=0.959;entryDx=0;entryDy=0;entryPerimeter=0;" parent="1" source="nDC3GwIiWiEVVQhMs_7W-8" target="SvQYntT_slhw4JaxMj-Q-2" edge="1">
          <mxGeometry relative="1" as="geometry" />
        </mxCell>
        <mxCell id="nDC3GwIiWiEVVQhMs_7W-12" value="&quot;path&quot;" style="edgeLabel;html=1;align=center;verticalAlign=middle;resizable=0;points=[];fontSize=16;fontStyle=1" parent="nDC3GwIiWiEVVQhMs_7W-11" vertex="1" connectable="0">
          <mxGeometry x="-0.4291" relative="1" as="geometry">
            <mxPoint as="offset" />
          </mxGeometry>
        </mxCell>
        <mxCell id="ujazCNuhz-sULvrIAdQW-8" style="edgeStyle=orthogonalEdgeStyle;rounded=0;orthogonalLoop=1;jettySize=auto;html=1;exitX=0.5;exitY=0;exitDx=0;exitDy=0;entryX=0.5;entryY=1;entryDx=0;entryDy=0;" edge="1" parent="1" source="nDC3GwIiWiEVVQhMs_7W-18" target="0YpsHcEJag4zuLVZvNyq-18">
          <mxGeometry relative="1" as="geometry" />
        </mxCell>
        <mxCell id="ujazCNuhz-sULvrIAdQW-29" style="edgeStyle=orthogonalEdgeStyle;rounded=0;orthogonalLoop=1;jettySize=auto;html=1;exitX=0;exitY=0.5;exitDx=0;exitDy=0;entryX=1;entryY=0.5;entryDx=0;entryDy=0;" edge="1" parent="1" source="nDC3GwIiWiEVVQhMs_7W-18" target="0YpsHcEJag4zuLVZvNyq-2">
          <mxGeometry relative="1" as="geometry">
            <Array as="points">
              <mxPoint x="70" y="235" />
              <mxPoint x="70" y="133" />
            </Array>
          </mxGeometry>
        </mxCell>
        <mxCell id="ujazCNuhz-sULvrIAdQW-30" value="&quot;pose&quot;" style="edgeLabel;html=1;align=center;verticalAlign=middle;resizable=0;points=[];fontSize=16;fontStyle=1" vertex="1" connectable="0" parent="ujazCNuhz-sULvrIAdQW-29">
          <mxGeometry x="0.5548" y="-1" relative="1" as="geometry">
            <mxPoint as="offset" />
          </mxGeometry>
        </mxCell>
        <mxCell id="nDC3GwIiWiEVVQhMs_7W-18" value="localization.py" style="rounded=1;whiteSpace=wrap;html=1;fillColor=#d5e8d4;strokeColor=#82b366;fontSize=16;fontStyle=1" parent="1" vertex="1">
          <mxGeometry x="130" y="215" width="130" height="40" as="geometry" />
        </mxCell>
        <mxCell id="ujazCNuhz-sULvrIAdQW-22" style="edgeStyle=orthogonalEdgeStyle;rounded=0;orthogonalLoop=1;jettySize=auto;html=1;exitX=0.5;exitY=1;exitDx=0;exitDy=0;entryX=0.5;entryY=0;entryDx=0;entryDy=0;" edge="1" parent="1" source="0YpsHcEJag4zuLVZvNyq-2" target="ujazCNuhz-sULvrIAdQW-21">
          <mxGeometry relative="1" as="geometry" />
        </mxCell>
        <mxCell id="ujazCNuhz-sULvrIAdQW-24" value="&quot;velocity&quot;" style="edgeLabel;html=1;align=center;verticalAlign=middle;resizable=0;points=[];fontSize=16;fontStyle=1" vertex="1" connectable="0" parent="ujazCNuhz-sULvrIAdQW-22">
          <mxGeometry x="-0.436" relative="1" as="geometry">
            <mxPoint y="7" as="offset" />
          </mxGeometry>
        </mxCell>
        <mxCell id="ujazCNuhz-sULvrIAdQW-28" style="edgeStyle=orthogonalEdgeStyle;rounded=0;orthogonalLoop=1;jettySize=auto;html=1;exitX=0;exitY=0.5;exitDx=0;exitDy=0;" edge="1" parent="1" source="0YpsHcEJag4zuLVZvNyq-2">
          <mxGeometry relative="1" as="geometry">
            <mxPoint x="-210" y="132.90476190476193" as="targetPoint" />
          </mxGeometry>
        </mxCell>
        <mxCell id="0YpsHcEJag4zuLVZvNyq-2" value="controller.py" style="rounded=1;whiteSpace=wrap;html=1;fillColor=#d5e8d4;strokeColor=#82b366;fontSize=16;fontStyle=1" parent="1" vertex="1">
          <mxGeometry x="-160" y="110.18" width="112.5" height="45" as="geometry" />
        </mxCell>
        <mxCell id="0YpsHcEJag4zuLVZvNyq-5" style="edgeStyle=orthogonalEdgeStyle;rounded=0;orthogonalLoop=1;jettySize=auto;html=1;exitX=0.5;exitY=1;exitDx=0;exitDy=0;entryX=0.75;entryY=0;entryDx=0;entryDy=0;" parent="1" source="0YpsHcEJag4zuLVZvNyq-3" target="0YpsHcEJag4zuLVZvNyq-2" edge="1">
          <mxGeometry relative="1" as="geometry">
            <Array as="points">
              <mxPoint x="-50" y="87.68" />
              <mxPoint x="-76" y="87.68" />
            </Array>
          </mxGeometry>
        </mxCell>
        <mxCell id="0YpsHcEJag4zuLVZvNyq-3" value="/cmd_pose" style="swimlane;whiteSpace=wrap;html=1;fillColor=#dae8fc;strokeColor=#6c8ebf;fontSize=16;fontStyle=1" parent="1" vertex="1">
          <mxGeometry x="-90" y="27.5" width="90" height="50" as="geometry" />
        </mxCell>
        <mxCell id="ujazCNuhz-sULvrIAdQW-9" style="edgeStyle=orthogonalEdgeStyle;rounded=0;orthogonalLoop=1;jettySize=auto;html=1;exitX=0;exitY=0.5;exitDx=0;exitDy=0;entryX=0.25;entryY=1;entryDx=0;entryDy=0;" edge="1" parent="1" source="0YpsHcEJag4zuLVZvNyq-18" target="SvQYntT_slhw4JaxMj-Q-2">
          <mxGeometry relative="1" as="geometry" />
        </mxCell>
        <mxCell id="0YpsHcEJag4zuLVZvNyq-18" value="/odom" style="swimlane;whiteSpace=wrap;html=1;fillColor=#dae8fc;strokeColor=#6c8ebf;fontSize=16;fontStyle=1" parent="1" vertex="1">
          <mxGeometry x="155" y="140" width="80" height="50" as="geometry" />
        </mxCell>
        <mxCell id="yx9C5_KuWFZl6ONCJPJu-1" value="Class" style="rounded=1;whiteSpace=wrap;html=1;fillColor=#fff2cc;strokeColor=#d6b656;fontSize=16;fontStyle=1" parent="1" vertex="1">
          <mxGeometry x="-465" y="77.5" width="80" height="40" as="geometry" />
        </mxCell>
        <mxCell id="ujazCNuhz-sULvrIAdQW-1" value="Encoders" style="rhombus;whiteSpace=wrap;html=1;fillColor=#f8cecc;strokeColor=#b85450;fontSize=16;fontStyle=1" vertex="1" parent="1">
          <mxGeometry x="882.5" y="215" width="105" height="60" as="geometry" />
        </mxCell>
        <mxCell id="ujazCNuhz-sULvrIAdQW-3" style="edgeStyle=orthogonalEdgeStyle;rounded=0;orthogonalLoop=1;jettySize=auto;html=1;exitX=0.5;exitY=1;exitDx=0;exitDy=0;entryX=0.855;entryY=0.855;entryDx=0;entryDy=0;entryPerimeter=0;" edge="1" parent="1" source="ujazCNuhz-sULvrIAdQW-1" target="SvQYntT_slhw4JaxMj-Q-76">
          <mxGeometry relative="1" as="geometry" />
        </mxCell>
        <mxCell id="ujazCNuhz-sULvrIAdQW-4" value="&quot;ticks&quot;" style="edgeLabel;html=1;align=center;verticalAlign=middle;resizable=0;points=[];fontSize=16;fontStyle=1" vertex="1" connectable="0" parent="ujazCNuhz-sULvrIAdQW-3">
          <mxGeometry x="-0.0159" y="-1" relative="1" as="geometry">
            <mxPoint x="28" as="offset" />
          </mxGeometry>
        </mxCell>
        <mxCell id="ujazCNuhz-sULvrIAdQW-48" style="edgeStyle=orthogonalEdgeStyle;rounded=0;orthogonalLoop=1;jettySize=auto;html=1;exitX=0.5;exitY=1;exitDx=0;exitDy=0;entryX=0.5;entryY=0;entryDx=0;entryDy=0;" edge="1" parent="1" source="ujazCNuhz-sULvrIAdQW-13" target="SvQYntT_slhw4JaxMj-Q-27">
          <mxGeometry relative="1" as="geometry" />
        </mxCell>
        <mxCell id="ujazCNuhz-sULvrIAdQW-13" value="Camera" style="rhombus;whiteSpace=wrap;html=1;fillColor=#f8cecc;strokeColor=#b85450;fontSize=16;fontStyle=1" vertex="1" parent="1">
          <mxGeometry x="317.5" y="-167.5" width="90" height="60" as="geometry" />
        </mxCell>
        <mxCell id="ujazCNuhz-sULvrIAdQW-20" style="edgeStyle=orthogonalEdgeStyle;rounded=0;orthogonalLoop=1;jettySize=auto;html=1;exitX=1;exitY=0.5;exitDx=0;exitDy=0;entryX=0;entryY=0.5;entryDx=0;entryDy=0;" edge="1" parent="1" source="ujazCNuhz-sULvrIAdQW-16" target="0YpsHcEJag4zuLVZvNyq-2">
          <mxGeometry relative="1" as="geometry" />
        </mxCell>
        <mxCell id="ujazCNuhz-sULvrIAdQW-16" value="PID" style="rounded=1;whiteSpace=wrap;html=1;fillColor=#fff2cc;strokeColor=#d6b656;fontSize=16;fontStyle=1" vertex="1" parent="1">
          <mxGeometry x="-290" y="112.68" width="80" height="40" as="geometry" />
        </mxCell>
        <mxCell id="ujazCNuhz-sULvrIAdQW-23" style="edgeStyle=orthogonalEdgeStyle;rounded=0;orthogonalLoop=1;jettySize=auto;html=1;exitX=0.5;exitY=1;exitDx=0;exitDy=0;entryX=0.5;entryY=0;entryDx=0;entryDy=0;" edge="1" parent="1" source="ujazCNuhz-sULvrIAdQW-21" target="SvQYntT_slhw4JaxMj-Q-70">
          <mxGeometry relative="1" as="geometry" />
        </mxCell>
        <mxCell id="ujazCNuhz-sULvrIAdQW-31" value="PWM" style="edgeLabel;html=1;align=center;verticalAlign=middle;resizable=0;points=[];fontSize=16;fontStyle=1" vertex="1" connectable="0" parent="ujazCNuhz-sULvrIAdQW-23">
          <mxGeometry x="-0.3931" relative="1" as="geometry">
            <mxPoint y="3" as="offset" />
          </mxGeometry>
        </mxCell>
        <mxCell id="ujazCNuhz-sULvrIAdQW-21" value="motor_control.py" style="rounded=1;whiteSpace=wrap;html=1;fillColor=#fff2cc;strokeColor=#d6b656;fontSize=16;fontStyle=1" vertex="1" parent="1">
          <mxGeometry x="-181.25" y="200" width="155" height="40" as="geometry" />
        </mxCell>
        <mxCell id="ujazCNuhz-sULvrIAdQW-34" value="uart.py" style="rounded=1;whiteSpace=wrap;html=1;fillColor=#fff2cc;strokeColor=#d6b656;fontSize=16;fontStyle=1" vertex="1" parent="1">
          <mxGeometry x="340" y="215" width="70" height="35" as="geometry" />
        </mxCell>
        <mxCell id="ujazCNuhz-sULvrIAdQW-37" value="uart.py" style="rounded=1;whiteSpace=wrap;html=1;fillColor=#fff2cc;strokeColor=#d6b656;fontSize=16;fontStyle=1" vertex="1" parent="1">
          <mxGeometry x="327.5" y="75.18" width="70" height="35" as="geometry" />
        </mxCell>
        <mxCell id="ujazCNuhz-sULvrIAdQW-39" style="edgeStyle=orthogonalEdgeStyle;rounded=0;orthogonalLoop=1;jettySize=auto;html=1;exitX=0;exitY=0.25;exitDx=0;exitDy=0;entryX=0.5;entryY=1;entryDx=0;entryDy=0;" edge="1" parent="1" source="ujazCNuhz-sULvrIAdQW-37" target="SvQYntT_slhw4JaxMj-Q-2">
          <mxGeometry relative="1" as="geometry">
            <mxPoint x="309.6700000000001" y="82.50000000000006" as="sourcePoint" />
            <mxPoint x="143.76250000000005" y="-35.484999999999836" as="targetPoint" />
          </mxGeometry>
        </mxCell>
        <mxCell id="ujazCNuhz-sULvrIAdQW-40" value="&quot;state&quot;" style="edgeLabel;html=1;align=center;verticalAlign=middle;resizable=0;points=[];fontSize=16;fontStyle=1" vertex="1" connectable="0" parent="ujazCNuhz-sULvrIAdQW-39">
          <mxGeometry x="-0.4189" y="1" relative="1" as="geometry">
            <mxPoint x="-37" y="-2" as="offset" />
          </mxGeometry>
        </mxCell>
        <mxCell id="ujazCNuhz-sULvrIAdQW-49" value="neopixel_ring.py" style="rounded=1;whiteSpace=wrap;html=1;fillColor=#fff2cc;strokeColor=#d6b656;fontSize=16;fontStyle=1" vertex="1" parent="1">
          <mxGeometry x="90" y="-175" width="145" height="32.5" as="geometry" />
        </mxCell>
        <mxCell id="ujazCNuhz-sULvrIAdQW-50" style="edgeStyle=orthogonalEdgeStyle;rounded=0;orthogonalLoop=1;jettySize=auto;html=1;exitX=0.5;exitY=1;exitDx=0;exitDy=0;entryX=0.681;entryY=0.019;entryDx=0;entryDy=0;entryPerimeter=0;" edge="1" parent="1" source="ujazCNuhz-sULvrIAdQW-49" target="SvQYntT_slhw4JaxMj-Q-2">
          <mxGeometry relative="1" as="geometry" />
        </mxCell>
      </root>
    </mxGraphModel>
  </diagram>
</mxfile>
